<?xml version="1.0" standalone="no"?>
<!DOCTYPE svg PUBLIC "-//W3C//DTD SVG 20010904//EN"
 "http://www.w3.org/TR/2001/REC-SVG-20010904/DTD/svg10.dtd">
<svg version="1.0" xmlns="http://www.w3.org/2000/svg"
 width="16.000000pt" height="16.000000pt" viewBox="0 0 16.000000 16.000000"
 preserveAspectRatio="xMidYMid meet">
<metadata>
Created by potrace 1.11, written by Peter Selinger 2001-2013
</metadata>
<g transform="translate(0.000000,16.000000) scale(0.002145,-0.002145)"
fill="#000000" stroke="none">
<path d="M3518 7455 c-2 -2 -39 -6 -83 -9 -111 -8 -153 -14 -285 -38 -63 -12
-125 -22 -137 -22 -13 -1 -23 -5 -23 -10 0 -5 -3 -7 -6 -3 -3 3 -29 -1 -57
-10 -28 -8 -59 -17 -70 -19 -39 -7 -233 -68 -272 -85 -11 -5 -56 -22 -100 -40
-81 -31 -346 -158 -355 -170 -3 -3 -19 -13 -36 -22 -54 -28 -252 -159 -283
-188 -11 -11 -24 -19 -30 -19 -5 0 -11 -3 -13 -7 -2 -5 -28 -28 -58 -52 -155
-126 -358 -338 -463 -484 -17 -23 -33 -44 -36 -47 -8 -7 -121 -179 -121 -184
0 -3 -13 -24 -29 -48 -26 -39 -171 -328 -171 -341 0 -3 -5 -18 -12 -34 -6 -15
-12 -30 -13 -33 -1 -3 -4 -12 -8 -20 -18 -46 -59 -168 -63 -187 -2 -12 -8 -33
-14 -47 -5 -13 -6 -27 -3 -30 4 -3 2 -6 -3 -6 -5 0 -11 -12 -12 -26 -3 -39
-10 -44 -40 -33 -15 6 -74 11 -132 11 -83 1 -118 -4 -169 -21 -158 -55 -258
-191 -298 -406 -9 -46 -8 -340 1 -400 13 -90 25 -166 33 -200 2 -11 6 -31 9
-45 2 -14 10 -47 16 -75 7 -27 13 -53 14 -57 1 -5 2 -9 4 -10 1 -2 3 -10 5
-18 19 -94 49 -224 59 -260 7 -25 14 -48 14 -53 0 -4 8 -33 18 -65 10 -31 18
-62 20 -69 6 -33 83 -198 123 -263 58 -96 52 -89 149 -179 32 -29 115 -68 160
-75 41 -6 42 -6 48 -42 3 -16 14 -63 25 -104 11 -41 22 -82 23 -90 2 -8 6 -22
9 -30 27 -74 28 -71 -35 -165 -74 -112 -144 -256 -175 -360 -37 -126 -50 -219
-48 -355 2 -142 5 -175 26 -269 14 -63 55 -181 87 -250 24 -53 120 -217 141
-244 6 -6 34 -41 63 -77 105 -131 360 -364 451 -411 12 -7 24 -15 27 -18 6 -7
152 -99 189 -118 80 -43 108 -59 121 -69 8 -7 20 -14 25 -15 6 -1 44 -17 85
-36 223 -103 530 -212 665 -237 6 -1 15 -5 22 -9 6 -4 24 -8 40 -9 15 -1 33
-5 38 -9 6 -4 28 -9 50 -12 22 -3 47 -8 55 -11 18 -7 76 -18 270 -51 38 -6 39
-7 175 -24 255 -32 653 -44 910 -27 158 10 228 16 261 21 17 2 57 7 89 11 32
3 66 7 76 9 9 2 39 7 66 11 26 3 57 8 68 10 11 3 35 7 54 10 18 3 43 8 55 10
11 3 32 7 46 10 27 5 222 51 255 60 11 3 29 7 41 9 12 3 40 11 63 20 23 8 43
15 46 15 6 1 12 3 85 26 30 10 60 19 65 20 6 1 35 12 65 24 77 31 94 37 102
39 24 5 250 111 344 161 290 153 493 309 714 550 35 38 110 139 110 148 0 6 4
12 9 14 15 5 116 189 140 254 12 33 25 68 30 79 9 21 30 93 37 129 11 55 16
84 20 121 8 67 8 217 -1 280 -4 33 -9 67 -10 75 0 9 -5 21 -9 28 -4 7 -5 16
-2 19 3 3 1 13 -4 23 -5 9 -11 28 -14 41 -13 70 -102 265 -157 347 -16 24 -29
47 -29 52 0 4 -4 10 -8 12 -17 7 -51 65 -43 74 10 10 69 228 78 284 6 40 17
50 54 50 14 0 29 3 33 8 4 4 11 8 14 8 27 6 52 18 52 25 0 5 6 9 13 9 19 0
108 89 147 146 19 27 36 51 40 54 24 21 142 321 165 421 2 13 19 83 35 154 17
72 33 141 36 155 3 13 13 60 24 105 10 44 21 97 24 118 15 96 18 115 26 157 5
25 7 131 6 235 -3 172 -5 197 -28 267 -76 229 -226 339 -459 332 -41 -1 -92
-7 -112 -12 -35 -10 -36 -9 -48 25 -6 19 -12 40 -13 46 -12 66 -106 304 -179
452 -76 154 -188 344 -209 353 -5 2 -8 8 -8 13 0 9 -71 109 -98 137 -7 8 -25
30 -40 50 -46 63 -83 103 -207 228 -176 177 -310 286 -516 420 -91 60 -388
217 -474 251 -39 15 -148 57 -155 58 -3 1 -12 5 -20 8 -62 25 -334 101 -404
111 -21 4 -41 8 -45 10 -3 2 -31 7 -61 11 -30 4 -58 9 -61 10 -3 2 -34 6 -70
9 -35 4 -80 9 -99 12 -36 6 -516 14 -522 9z"/>
</g>
</svg>
