<svg width="362" height="373" xmlns="http://www.w3.org/2000/svg">

 <g id="imagebot_2">
  <path id="imagebot_3" d="M 307.7778709716797 181.4929983520508 C 308.79587097167973 188.83099835205076 310.2488709716797 213.7159983520508 318.67487097167964 217.76799835205077 C 345.9698709716797 230.8919983520508 355.54387097167967 169.2479983520508 358.57287097167966 154.40199835205078 C 361.58887097167974 139.6289983520508 357.40587097167963 104.86599835205078 334.98787097167974 113.22299835205078 C 334.2528709716797 113.4939983520508 333.72187097167966 113.83399835205077 333.34287097167964 114.20999835205077 C 323.5608709716797 109.99099835205078 312.3308709716797 111.07599835205079 308.76087097167965 123.03399835205079 C 303.4758709716797 140.7599983520508 305.2818709716797 163.55899835205076 307.7778709716797 181.4929983520508 z" fill="#D8B78B"/>
  <path id="imagebot_4" d="M 53.132870971679665 123.03599835205077 C 49.56287097167967 111.07799835205077 38.33287097167968 109.99299835205079 28.5508709716797 114.21199835205078 C 28.172870971679686 113.83599835205078 27.642870971679685 113.49599835205078 26.910870971679685 113.22499835205079 C 4.493870971679684 104.86799835205079 0.30587097167969546 139.6289983520508 3.320870971679682 154.4039983520508 C 6.351870971679688 169.25099835205077 15.9258709716797 230.89299835205077 43.22087097167969 217.76999835205078 C 51.64787097167971 213.7159983520508 53.10087097167968 188.8319983520508 54.11787097167968 181.4949983520508 C 56.61487097167969 163.55899835205076 58.4198709716797 140.7599983520508 53.132870971679665 123.03599835205077 z" fill="#D8B78B"/>
  <path id="imagebot_5" d="M 332.8408709716797 149.10499835205076 C 332.8408709716797 67.92999835205077 265.00787097167967 2.125998352050786 181.33187097167968 2.125998352050786 C 97.65987097167971 2.125998352050786 29.827870971679687 61.75499835205079 29.827870971679687 149.10499835205076 C 29.827870971679687 312.2169983520508 97.66087097167969 296.0819983520508 181.33187097167968 296.0819983520508 C 265.00787097167967 296.08099835205076 332.8408709716797 312.21799835205076 332.8408709716797 149.10499835205076 z" stroke-miterlimit="10" stroke-width="4.252" stroke="#000000" fill="#7F512E"/>
  <path id="imagebot_6" d="M 56.551870971679705 199.7309983520508 C 56.551870971679705 275.1759983520508 112.65687097167967 336.3349983520508 181.8648709716797 336.3349983520508 C 251.06287097167967 336.3349983520508 307.16987097167964 275.1759983520508 307.16987097167964 199.7309983520508 C 307.16987097167964 124.28199835205078 306.50587097167966 28.89199835205079 181.31987097167968 58.594998352050794 C 39.531870971679695 28.890998352050786 56.551870971679705 124.28199835205078 56.551870971679705 199.7309983520508 z" stroke-miterlimit="10" stroke-width="4.252" stroke="#000000" fill="#D8B78B"/>
  <ellipse id="imagebot_7" ry="64.64603" rx="50.53255" cy="140.72415" cx="124.4405" stroke-miterlimit="10" stroke-width="4.252" stroke="#000000" fill="#ffffff"/>
  <path id="imagebot_8" d="M 106.5478694363772 160.73504589896262 C 106.5478694363772 180.91936985073394 117.0152685404063 197.28265167408964 129.93029283324074 197.28265167408964 C 142.85185720674002 197.28265167408964 153.32252635110154 180.9210048709001 153.32252635110154 160.73504589896262 C 153.32252635110154 140.55399198752377 142.85512724707243 124.19071016416801 129.93029283324074 124.19071016416801 C 117.01690356057254 124.19234518433431 106.5478694363772 140.55399198752377 106.5478694363772 160.73504589896262 z"/>
  <path id="imagebot_9" d="M 336.6088709716797 277.4659983520508 C 336.6088709716797 328.9179983520508 267.0888709716797 370.6299983520508 181.3378709716797 370.6299983520508 C 95.5808709716797 370.6299983520508 26.06687097167969 328.9179983520508 26.06687097167969 277.4659983520508 C 26.06687097167969 226.01499835205078 95.58287097167971 184.30399835205077 181.3378709716797 184.30399835205077 C 267.0888709716797 184.3029983520508 336.6088709716797 226.0139983520508 336.6088709716797 277.4659983520508 z" stroke-miterlimit="10" stroke-width="4.252" stroke="#000000" fill="#D8B78B"/>
  <path id="imagebot_10" d="M 281.79713505880915 157.3355382592547 C 256.39147651311595 121.11584530924412 201.1693342173357 129.79593578803352 201.1693342173357 129.79593578803352" stroke-miterlimit="10" stroke-linecap="round" stroke-width="4.252" stroke="#000000" fill="none"/>
  <path id="imagebot_11" d="M 31.077870971679687 278.10699835205077 C 45.767870971679685 289.6199983520508 108.2828709716797 334.6419983520508 187.0858709716797 334.6499983520508 C 187.0908709716797 334.6499983520508 187.10187097167966 334.6499983520508 187.10187097167966 334.6499983520508 C 238.6668709716797 334.6499983520508 287.3158709716797 315.62899835205076 331.7818709716797 278.0969983520508 C 287.3428709716797 257.11699835205076 238.6818709716797 246.48399835205078 187.08687097167967 246.48399835205078 C 108.8648709716797 246.4849983520508 46.79087097167968 271.2399983520508 31.077870971679687 278.10699835205077 z" fill="#FFFFFF"/>
  <path id="imagebot_12" d="M 26.065870971679686 277.4659983520508 C 26.065870971679686 277.4659983520508 181.33687097167967 412.1079983520508 336.6088709716797 277.4659983520508 C 181.33687097167967 201.78299835205075 26.065870971679686 277.4659983520508 26.065870971679686 277.4659983520508" stroke-miterlimit="10" stroke-linejoin="bevel" stroke-width="4.252" stroke="#000000" fill="none"/>
  <g transform="translate(-208.404 -113.122)" id="imagebot_13">
   <path id="imagebot_14" d="M234.47,390.588C234.47,390.588 389.726,427.609 544.983,390.588" stroke-miterlimit="10" stroke-width="4.252" stroke="#000000" fill="none"/>
   <line id="imagebot_15" y2="414.013" x2="265.781" y1="378.369" x1="265.781" stroke-miterlimit="10" stroke-width="4.252" stroke="#000000" fill="none"/>
   <line id="imagebot_16" y2="430.257" x2="307.098" y1="368.138" x1="307.098" stroke-miterlimit="10" stroke-width="4.252" stroke="#000000" fill="none"/>
   <line id="imagebot_17" y2="443.067" x2="345.55" y1="360.894" x1="345.55" stroke-miterlimit="10" stroke-width="4.252" stroke="#000000" fill="none"/>
   <line id="imagebot_18" y2="414.013" x2="515.574" y1="378.369" x1="515.574" stroke-miterlimit="10" stroke-width="4.252" stroke="#000000" fill="none"/>
   <line id="imagebot_19" y2="435.312" x2="474.253" y1="365.66" x1="474.253" stroke-miterlimit="10" stroke-width="4.252" stroke="#000000" fill="none"/>
   <line id="imagebot_20" y2="446.664" x2="435.801" y1="360.894" x1="435.801" stroke-miterlimit="10" stroke-width="4.252" stroke="#000000" fill="none"/>
   <line id="imagebot_21" y2="450.429" x2="389.726" y1="357.003" x1="389.726" stroke-miterlimit="10" stroke-width="4.252" stroke="#000000" fill="none"/>
  </g>
  <path id="imagebot_22" d="M 34.674870971679695 214.9419983520508 C 34.65387097167968 214.94399835205076 32.17387097167969 215.51799835205077 28.6758709716797 213.3749983520508 C 23.232870971679688 210.0429983520508 15.6878709716797 200.55599835205078 10.612870971679683 174.0739983520508 C 7.639870971679699 163.01799835205077 6.087870971679678 154.0669983520508 5.54287097167969 146.82099835205076 C 5.433870971679681 145.3699983520508 5.360870971679674 143.9899983520508 5.329870971679696 142.67499835205078 C 5.002870971679698 129.5109983520508 8.354870971679674 122.8449983520508 12.039870971679676 119.48299835205077 C 17.908870971679676 114.1249983520508 26.50687097167969 115.35799835205077 30.49287097167968 116.33599835205078 C 31.821870971679687 116.65999835205079 32.640870971679675 116.95899835205077 32.672870971679686 116.97299835205078 L 34.535870971679685 111.9939983520508 C 33.89187097167968 111.75499835205079 18.739870971679693 106.22199835205078 8.490870971679698 115.52999835205077 C -0.4451290283203093 123.64399835205077 -2.3231290283203236 140.13199835205077 2.834870971679692 164.47999835205076 C 3.566870971679691 167.94399835205076 4.443870971679701 171.56799835205078 5.455870971679701 175.3509983520508 C 9.7888709716797 197.9369983520508 16.6698709716797 212.25799835205078 25.9018709716797 217.9109983520508 C 29.12387097167968 219.88599835205076 31.9258709716797 220.3269983520508 33.789870971679676 220.3269983520508 C 35.11287097167968 220.3269983520508 35.96887097167968 220.10399835205078 36.160870971679685 220.04699835205076 L 34.674870971679695 214.9419983520508 z"/>
  <path id="imagebot_23" d="M 353.7068709716797 115.52699835205078 C 343.46387097167974 106.2199983520508 328.3058709716797 111.75199835205078 327.6618709716797 111.99099835205078 L 329.5238709716797 116.9699983520508 C 329.6478709716797 116.91699835205077 342.3368709716797 112.34299835205078 350.15587097167963 119.4819983520508 C 350.52487097167966 119.81599835205077 350.88687097167974 120.18799835205078 351.25187097167964 120.59099835205078 C 356.27087097167964 126.26599835205079 359.9648709716797 139.0469983520508 353.1728709716797 167.80599835205078 C 352.69387097167964 169.8169983520508 352.16587097167974 171.90299835205076 351.5848709716797 174.07499835205078 L 351.5848709716797 174.07499835205078 C 351.56787097167967 174.1419983520508 351.55387097167966 174.19999835205078 351.5378709716797 174.2669983520508 C 346.5758709716797 200.20499835205078 339.15487097167966 209.75799835205078 333.80087097167973 213.20499835205078 C 330.1628709716797 215.54499835205075 327.56887097167964 214.95599835205076 327.5228709716797 214.94299835205078 L 326.03987097167965 220.04399835205078 C 326.2358709716797 220.10199835205077 327.08787097167965 220.3239983520508 328.40987097167965 220.3239983520508 C 330.2728709716797 220.3239983520508 333.0818709716797 219.8799983520508 336.30387097167966 217.90799835205075 C 345.54587097167973 212.24599835205078 352.4268709716797 197.89799835205076 356.71387097167974 175.45499835205078 C 364.91487097167965 144.94999835205078 363.9038709716797 124.78799835205078 353.7068709716797 115.52699835205078 z"/>
  <title>imagebot_2</title>
 </g>
</svg>